<?xml version="1.0" encoding="utf-8"?>
<!-- Generator: Adobe Illustrator 14.0.0, SVG Export Plug-In . SVG Version: 6.00 Build 43363)  -->
<!DOCTYPE svg PUBLIC "-//W3C//DTD SVG 1.1//EN" "http://www.w3.org/Graphics/SVG/1.1/DTD/svg11.dtd">
<svg version="1.1" xmlns="http://www.w3.org/2000/svg" xmlns:xlink="http://www.w3.org/1999/xlink" x="0px" y="0px" width="796px"
	 height="778px" viewBox="0 0 796 778" enable-background="new 0 0 796 778" xml:space="preserve">
<g id="Calque_1">
	<g>
		<path fill="#444A9A" d="M535.074,661.772c0.916-0.281,1.263-1.136,1.904-1.693c0.404-0.397,0.532-0.022,1.058,0
			c0.285-0.422,0.494-0.919,1.06-1.059c1.488,0.288,1.086-1.314,2.753-0.846c0.163-0.896,1.028-1.089,1.481-1.693
			c1.651,0.32,3.325-1.569,4.795-0.848c0.137-0.338,0.188-1.397,0.202-2.759c-4.38,2.91-8.843,5.707-13.387,8.38
			C534.98,661.469,535.025,661.645,535.074,661.772z"/>
		<path fill="#444A9A" d="M630.25,575.734c0-2.36,1.75-5.196,1.75-7.734c0-0.125-8.86,0.125-8.86,0c0-21.199,0-47.731,0-66.956
			c-19.758-0.353-40.998-0.353-60.758,0c-0.142,27.24,0.284,56.874-0.211,84.468c-2.83-0.134-6.2,0.272-8.68-0.212
			c-0.139-5.436,0.278-11.43-0.212-16.514c-17.782-0.141-36.129,0.282-53.559-0.211c-0.142-28.086,0.28-56.734-0.213-84.467
			c-20.18,0.142-40.927-0.283-60.756,0.211c-0.141,9.527,0.282,19.617-0.213,28.791c-3.206,0.232-8.357,0.605-11.219-0.212
			c-0.111-1.298,0.242-3.065-0.213-4.021c-6.103,0-12.715,0-18.629,0c-2.034,0-4.168,0.334-5.927-0.424
			c-0.002-20.68,0.003-42.475,0-62.449c-20.252,0-40.505,0-60.757,0c-0.141,15.806,0.282,32.176-0.212,47.63
			c-16.512,0.635-34.505-0.211-51.018,0.424c-0.142,11.855,0.282,24.275-0.212,35.777c-11.714,0.352-24.908,0.352-36.623,0
			c-0.494-21.805-0.071-44.527-0.212-66.684c-19.758-0.354-40.998-0.354-60.756,0c-0.143,27.24,0.283,56.873-0.212,84.466
			c-17.853,0-35.706,0-53.559,0c-0.609,0.159,0.167,1.7-0.407,1.894v5.353c49.511,87.165,143.175,145.971,250.583,145.971
			c53.196,0,103.017-14.428,145.774-39.579c-0.627-3.293-0.305-16.077-0.079-18.373c4.029-0.353,9.52-0.353,13.549,0
			c-0.273,0.943-0.049,6.497-0.083,9.993c13.341-8.866,25.9-18.814,37.554-29.72c0-3.594,0-11.651,0-12.876
			c1.435-0.471,3.724-0.086,5.505-0.212c-0.184,1.049-0.077,4.593-0.054,7.854c12.066-11.898,23.09-24.853,32.918-38.715l0.75-2.082
			c-0.404,0.763-1.17,1.733-1.5,1.625l-1.625,1.25c0.133,0.909-1.465,0.1-1.91,0.431c-1.108-0.308-0.654-3.294-0.424-4.233
			C619.786,575.137,629.21,575.539,630.25,575.734z M445.737,490.671c-0.009-0.362,0.158-0.548,0.424-0.636
			c4.304,0,8.608,0,12.913,0c0.492,7.341,0.072,15.594,0.212,23.288c-4.042,0.35-9.507,0.35-13.549,0
			C445.389,506.262,445.383,497.731,445.737,490.671z M459.286,515.862c0,7.691,0,15.384,0,23.075c-4.517,0-9.032,0-13.549,0
			c-0.344-7.065-0.357-15.589,0-22.651c-0.009-0.361,0.158-0.549,0.424-0.636C450.469,515.789,455.33,515.373,459.286,515.862z
			 M431.555,521.578c-0.011-0.361,0.157-0.548,0.423-0.635c2.258,0,4.517,0,6.774,0c0.492,7.341,0.071,15.594,0.212,23.287
			c-2.47,0-4.94,0-7.409,0C431.555,536.68,431.555,529.129,431.555,521.578z M431.766,546.56c2.329,0,4.657,0,6.986,0
			c0.346,1.174,0.346,3.692,0,4.868c-2.34-0.131-5.209,0.268-7.197-0.212C431.673,549.712,431.302,547.718,431.766,546.56z
			 M405.938,515.438c-0.009-0.362,0.157-0.548,0.425-0.634c4.374,0,8.749,0,13.124,0c0.348,7.278,0.354,16.009,0,23.286
			c-4.446,0-8.891,0-13.336,0C405.658,530.962,406.078,522.921,405.938,515.438z M403.609,514.805
			c0.352,7.281,0.352,16.005,0,23.286c-4.448-0.138-9.451,0.278-13.548-0.212c0-7.48,0-14.959,0-22.44
			c-0.009-0.362,0.158-0.548,0.424-0.634C394.86,514.805,399.235,514.805,403.609,514.805z M390.273,551.428
			c0.039-0.18-0.083-0.199-0.212-0.212c0-3.388,0-6.773,0-10.162c-0.009-0.362,0.158-0.547,0.424-0.634c4.375,0,8.75,0,13.124,0
			c0.334,3.149,0.359,7.65,0,10.796C399.583,551.706,394.651,551.29,390.273,551.428z M394.93,584.664c0,7.62,0,15.243,0,22.863
			c-4.099,0.353-9.661,0.353-13.759,0c0-7.479,0-14.961,0-22.44c0.181-0.171,0.125-0.58,0.423-0.635
			C385.972,584.59,390.904,584.175,394.93,584.664z M382.44,452.143c4.379,0.137,9.311-0.277,13.337,0.212
			c-0.14,7.621,0.281,15.805-0.211,23.073c-4.445,0-8.891,0-13.337,0c-0.348-7.061-0.355-15.592,0-22.651
			C382.211,452.477,382.194,452.178,382.44,452.143z M382.229,478.393c-0.018-0.3-0.035-0.601,0.212-0.635
			c4.379,0.137,9.311-0.277,13.337,0.211c-0.14,7.624,0.281,15.807-0.211,23.075c-4.445,0-8.891,0-13.337,0
			C381.88,493.983,381.873,485.451,382.229,478.393z M382.44,503.374c4.375,0,8.75,0,13.125,0c0.471,1.433,0.088,3.722,0.211,5.503
			c-4.036,0.345-9.514,0.357-13.549,0C382,507.483,381.654,504.427,382.44,503.374z M373.55,540.42c4.445,0,8.891,0,13.336,0
			c0,7.691,0,15.384,0,23.074c-4.03,0.352-9.52,0.352-13.549,0C373.479,555.874,373.056,547.688,373.55,540.42z M373.337,538.091
			c0-7.551,0-15.101,0-22.652c-0.009-0.362,0.158-0.548,0.424-0.634c4.375,0,8.751,0,13.125,0c0,7.762,0,15.525,0,23.286
			C382.37,538.091,377.854,538.091,373.337,538.091z M365.293,452.776c0.182-0.17,0.126-0.579,0.423-0.634
			c4.378,0.137,9.311-0.277,13.337,0.212c0,7.62,0,15.241,0,22.862c-4.099,0.352-9.661,0.353-13.76,0
			C365.293,467.738,365.293,460.257,365.293,452.776z M365.293,478.393c0.182-0.171,0.126-0.581,0.423-0.635
			c4.378,0.137,9.311-0.277,13.337,0.211c-0.14,7.624,0.281,15.807-0.211,23.075c-4.446,0-8.891,0-13.337,0
			C365.015,493.912,365.431,485.875,365.293,478.393z M365.293,504.007c0.113-0.169,0.221-0.343,0.212-0.633
			c4.446,0,8.891,0,13.337,0c0.347,1.378,0.347,4.126,0,5.503c-3.496,0.516-8.913,0.038-12.067,0.213c-0.019,3.621,0,8.953,0,13.547
			c0,1.408,0.475,3.205-0.634,4.022c-1.312,0.115-0.802-1.518-0.847-2.116C364.838,518.395,365.636,510.352,365.293,504.007z
			 M379.053,584.664c0,7.62,0,15.243,0,22.863c-4.099,0.353-9.661,0.353-13.76,0c0-7.479,0-14.961,0-22.44
			c0.182-0.171,0.126-0.58,0.423-0.635C370.094,584.59,375.027,584.175,379.053,584.664z M349.416,452.776
			c0.182-0.17,0.125-0.579,0.423-0.634c4.378,0.137,9.311-0.277,13.336,0.212c0,7.62,0,15.241,0,22.862
			c-4.099,0.352-9.66,0.353-13.759,0C349.416,467.738,349.416,460.257,349.416,452.776z M348.569,585.087
			c-0.009-0.362,0.158-0.549,0.424-0.635c4.375,0,8.75,0,13.125,0c0.49,7.272,0.074,15.451,0.212,23.075
			c-4.1,0.353-9.661,0.353-13.761,0C348.569,600.048,348.569,592.566,348.569,585.087z M351.321,530.681c0-0.141,0-0.282,0-0.423
			c-0.034-0.246,0.047-0.377,0.212-0.423c3.814,0.137,8.179-0.277,11.642,0.211c-0.139,7.624,0.282,15.806-0.21,23.075
			c-2.682,0-5.364,0-8.044,0c-0.355-6.785-0.348-15.019,0-21.804C354.213,530.612,351.676,531.737,351.321,530.681z
			 M363.175,526.447c-3.533,0.488-7.969,0.075-11.854,0.212c0.141-7.691-0.282-15.947,0.212-23.285
			c3.814,0.135,8.179-0.278,11.642,0.211C363.175,511.205,363.175,518.828,363.175,526.447z M314.486,551.004
			c4.446,0,8.892,0,13.337,0c0,7.691,0,15.384,0,23.076c-4.098,0.489-9.1,0.073-13.549,0.211
			C314.416,566.599,313.992,558.342,314.486,551.004z M314.486,577.466c4.446,0,8.892,0,13.337,0c0,7.691,0,15.385,0,23.075
			c-4.098,0.491-9.1,0.074-13.549,0.213C314.416,593.061,313.992,584.806,314.486,577.466z M282.52,538.303
			c-0.01-0.362,0.157-0.549,0.423-0.635c2.542,0,5.081,0,7.622,0c0.493,7.341,0.071,15.594,0.211,23.286
			c-2.306,0.347-5.949,0.347-8.255,0C282.506,554.352,282.526,544.899,282.52,538.303z M200.381,469.502
			c-0.009-0.362,0.158-0.549,0.424-0.636c4.307,0.138,9.169-0.276,13.125,0.211c0.354,7.202,0.35,15.873,0,23.075
			c-3.972,0.35-9.365,0.35-13.337,0C200.101,485.023,200.522,476.982,200.381,469.502z M181.964,554.18
			c-0.009-0.362,0.158-0.548,0.423-0.636c4.308,0.138,9.169-0.277,13.126,0.214c0,7.69,0,15.382,0,23.073
			c-4.042,0.35-9.508,0.35-13.549,0C181.955,570.226,181.965,560.782,181.964,554.18z M162.7,582.124
			c-1.134-0.632-2.197-1.332-2.54-2.753c0.541-0.333,2.211-0.333,2.752,0C162.826,580.273,163.116,581.554,162.7,582.124z
			 M162.7,576.831c-1.431,0.241-4.211,0.359-5.366,0.119c-0.836-0.174-0.2,2.464-0.562,1.823c-0.212-0.377,0.038-0.907-0.211-1.271
			c-0.841-1.232-2.106-1.665-2.751-2.539c0-0.424,0-0.848,0-1.271c-1.145-0.266-1.255-1.566-2.33-1.905
			c0.276-1.716-2.328-2.134-2.328-3.811c0-3.059,0-9.976,0-13.796c0.119-0.305,0.33-0.516,0.635-0.636
			c4.313,0.133,9.161-0.269,13.125,0.214C162.771,561.379,163.192,569.562,162.7,576.831z M178.789,602.167
			c-0.977-0.117-2.138-2.509-2.788-3.167c-1.992-2.014-3.734-4.479-6.167-6.333c-0.292-0.273-1.415-0.938-1.417-1.5
			c-1.797-1.38-2.057-2.493-3.389-4.334c0-2-0.674-6.726,0.635-7.674c4.308,0.139,9.169-0.277,13.125,0.212
			C178.789,586.146,178.789,595.394,178.789,602.167z M178.578,576.831c-3.965,0.356-9.371,0.344-13.337,0
			c-0.49-7.131-0.074-15.169-0.212-22.651c0.119-0.305,0.33-0.516,0.635-0.636c4.313,0.133,9.162-0.269,13.125,0.214
			C178.648,561.379,179.069,569.562,178.578,576.831z M181.964,579.796c-0.009-0.363,0.158-0.549,0.423-0.637
			c4.308,0.139,9.169-0.277,13.126,0.212c0,7.692,0,15.384,0,23.076c-4.517,0-9.033,0-13.549,0
			C181.955,595.84,181.965,586.396,181.964,579.796z M195.513,618.25c-1.764-0.229-2.515-3.903-4.263-3.583
			c-2.506-3.14-6.514-6.52-9-9.68c3.458-0.494,9.24-0.07,13.051-0.213C195.789,607.957,195.376,614.717,195.513,618.25z
			 M200.381,495.115c-0.009-0.362,0.158-0.548,0.424-0.633c4.307,0.135,9.169-0.279,13.125,0.211c0.354,7.202,0.35,15.872,0,23.075
			c-4.446,0-8.891,0-13.337,0C200.101,510.639,200.522,502.598,200.381,495.115z M213.93,620.863
			c-2.269,0.482-5.425,0.081-8.044,0.214c-0.492-7.13-0.071-15.172-0.211-22.653c-0.009-0.361,0.157-0.547,0.423-0.635
			c2.61,0,5.222,0,7.833,0C214.28,604.992,214.284,613.661,213.93,620.863z M213.93,595.461c-2.682,0-5.362,0-8.044,0
			c-0.492-7.13-0.071-15.172-0.211-22.652c-0.009-0.362,0.157-0.547,0.423-0.635c2.61,0,5.222,0,7.833,0
			C214.282,579.45,214.282,588.186,213.93,595.461z M213.93,569.846c-2.682,0-5.362,0-8.044,0
			c-0.492-6.918-0.071-14.748-0.211-22.018c-1.668-0.236-4.313,0.503-5.293-0.423c0-0.211,0-0.423,0-0.635
			c4.097-0.489,9.1-0.074,13.549-0.211C214.282,553.834,214.282,562.569,213.93,569.846z M213.93,543.384
			c-4.449-0.139-9.452,0.278-13.549-0.212c0-7.481,0-14.959,0-22.44c-0.009-0.362,0.158-0.547,0.424-0.635c4.375,0,8.75,0,13.125,0
			C214.282,527.371,214.282,536.108,213.93,543.384z M229.808,621.077c-4.449-0.139-9.452,0.276-13.549-0.214
			c0-7.479,0-14.959,0-22.439c-0.009-0.361,0.158-0.547,0.424-0.635c4.375,0,8.75,0,13.125,0
			C230.16,605.063,230.16,613.801,229.808,621.077z M229.808,595.461c-4.449-0.14-9.452,0.278-13.549-0.212c0-7.48,0-14.96,0-22.44
			c-0.009-0.362,0.158-0.547,0.424-0.635c4.375,0,8.75,0,13.125,0C230.16,579.45,230.16,588.186,229.808,595.461z M229.808,569.846
			c-4.449-0.138-9.452,0.278-13.549-0.213c0-7.479,0-14.959,0-22.44c-0.009-0.361,0.158-0.547,0.424-0.633c4.375,0,8.75,0,13.125,0
			C230.16,553.834,230.16,562.569,229.808,569.846z M229.808,543.384c-4.449-0.139-9.452,0.278-13.549-0.212
			c0-7.481,0-14.959,0-22.44c-0.009-0.362,0.158-0.547,0.424-0.635c4.375,0,8.75,0,13.125,0
			C230.16,527.371,230.16,536.108,229.808,543.384z M229.808,517.769c-4.449-0.138-9.452,0.276-13.549-0.213
			c0-7.479,0-14.959,0-22.44c-0.009-0.362,0.158-0.548,0.424-0.633c4.375,0,8.75,0,13.125,0
			C230.16,501.757,230.16,510.492,229.808,517.769z M229.808,492.152c-3.972,0.35-9.365,0.35-13.337,0
			c-0.492-7.129-0.071-15.17-0.212-22.65c-0.009-0.362,0.158-0.549,0.424-0.636c4.308,0.138,9.168-0.276,13.125,0.211
			C230.162,476.279,230.157,484.95,229.808,492.152z M238.698,620.863c-1.433,0.473-3.723,0.088-5.504,0.214
			c-0.489-7.132-0.073-15.17-0.21-22.653c-0.01-0.361,0.157-0.547,0.423-0.635c1.764,0,3.528,0,5.292,0
			C238.698,605.48,238.698,613.173,238.698,620.863z M238.698,595.249c-1.445,0.347-4.27,0.347-5.715,0c0-7.48,0-14.96,0-22.44
			c-0.01-0.362,0.157-0.547,0.423-0.635c1.764,0,3.528,0,5.292,0C238.698,579.865,238.698,587.558,238.698,595.249z
			 M238.698,561.589c0,2.752,0,5.504,0,8.257c-1.85-0.125-4.212,0.261-5.715-0.213c0-7.479,0-14.959,0-22.44
			c-0.01-0.361,0.157-0.547,0.423-0.633c2.046,0,4.092,0,6.139,0c0.196,3.78-0.315,9.653,0.212,13.76
			C239.701,561.038,238.667,560.781,238.698,561.589z M246.532,530.046c-1.795,0.547-5.301-0.014-6.774,0.212
			c-0.528,3.877-0.023,9.575-0.212,13.126c-2.117,0-4.233,0-6.352,0c-0.492-7.13-0.071-15.171-0.21-22.652
			c-0.01-0.362,0.157-0.547,0.423-0.635c4.377,0.138,9.31-0.277,13.336,0.211C246.608,523.49,247.018,527.217,246.532,530.046z
			 M246.532,517.769c-4.449-0.138-9.452,0.276-13.548-0.213c0-7.479,0-14.959,0-22.44c0.182-0.17,0.125-0.579,0.423-0.633
			c4.375,0,8.75,0,13.125,0C246.881,501.755,246.886,510.495,246.532,517.769z M246.532,492.152c-3.972,0.35-9.365,0.35-13.338,0
			c-0.492-7.129-0.071-15.17-0.21-22.65c0.118-0.306,0.33-0.518,0.635-0.636c4.237,0.138,9.028-0.276,12.914,0.211
			C246.884,476.278,246.884,484.953,246.532,492.152z M261.562,643.093c-4.448-0.139-9.451,0.278-13.549-0.211
			c0-7.482,0-14.962,0-22.44c-0.009-0.362,0.158-0.549,0.424-0.637c4.375,0,8.75,0,13.125,0
			C261.914,627.081,261.914,635.818,261.562,643.093z M261.562,617.478c-4.448-0.139-9.451,0.277-13.549-0.212
			c0-7.48,0-14.961,0-22.441c-0.009-0.361,0.158-0.547,0.424-0.635c4.375,0,8.75,0,13.125,0
			C261.914,601.466,261.914,610.202,261.562,617.478z M261.562,591.862c-4.445,0-8.891,0-13.336,0
			c-0.493-7.13-0.072-15.171-0.213-22.652c-0.009-0.361,0.158-0.547,0.424-0.635c4.307,0.138,9.168-0.278,13.125,0.211
			C261.917,575.988,261.912,584.658,261.562,591.862z M263.467,560.954c-4.042,0.35-9.507,0.35-13.549,0
			c-0.349-7.062-0.355-15.592,0-22.651c-0.009-0.362,0.158-0.549,0.423-0.635c4.313,0.132,9.161-0.271,13.125,0.211
			C263.467,545.571,263.467,553.264,263.467,560.954z M278.497,642.882c-4.097,0.489-9.099,0.072-13.548,0.211
			c-0.49-7.132-0.074-15.168-0.212-22.651c-0.01-0.362,0.157-0.549,0.423-0.637c4.378,0.139,9.311-0.277,13.336,0.212
			C278.497,627.638,278.497,635.26,278.497,642.882z M278.497,617.266c-4.099,0.351-9.66,0.351-13.76,0c0-7.48,0-14.961,0-22.441
			c0.182-0.17,0.126-0.578,0.423-0.635c4.378,0.138,9.311-0.277,13.336,0.214C278.497,602.022,278.497,609.646,278.497,617.266z
			 M278.497,591.649c-4.099,0.354-9.66,0.354-13.76,0c0-7.479,0-14.959,0-22.439c0.182-0.171,0.126-0.58,0.423-0.635
			c4.378,0.138,9.311-0.278,13.336,0.211C278.497,576.408,278.497,584.029,278.497,591.649z M279.344,560.954
			c-4.042,0.35-9.507,0.35-13.548,0c-0.349-7.062-0.355-15.592,0-22.651c-0.009-0.362,0.158-0.549,0.423-0.635
			c4.313,0.132,9.162-0.271,13.125,0.211C279.344,545.571,279.344,553.264,279.344,560.954z M294.374,642.882
			c-4.096,0.489-9.099,0.072-13.548,0.211c-0.49-7.132-0.073-15.168-0.211-22.651c-0.01-0.362,0.157-0.549,0.423-0.637
			c4.378,0.139,9.31-0.277,13.335,0.212C294.374,627.638,294.374,635.26,294.374,642.882z M294.374,617.266
			c-4.098,0.351-9.66,0.351-13.759,0c0-7.48,0-14.961,0-22.441c0.181-0.17,0.125-0.578,0.423-0.635
			c4.378,0.138,9.31-0.277,13.335,0.214C294.374,602.022,294.374,609.646,294.374,617.266z M294.374,591.649
			c-4.098,0.354-9.66,0.354-13.759,0c0-7.479,0-14.959,0-22.439c0.181-0.171,0.125-0.58,0.423-0.635
			c4.378,0.138,9.31-0.278,13.335,0.211C294.374,576.408,294.374,584.029,294.374,591.649z M311.099,651.771
			c-1.721,0.35-4.842,0.35-6.563,0c0-7.621,0-15.241,0-22.863c1.398-0.825,4.813-0.403,6.563-0.212
			C311.099,636.388,311.099,644.081,311.099,651.771z M311.099,626.157c-1.721,0.349-4.842,0.349-6.563,0
			c0.142-7.621-0.281-15.808,0.212-23.077c2.046,0,4.093,0,6.14,0C311.379,610.352,310.958,618.534,311.099,626.157z
			 M311.099,600.541c-1.721,0.35-4.842,0.35-6.563,0c0.142-7.62-0.281-15.807,0.212-23.075c2.046,0,4.093,0,6.14,0
			C311.379,584.736,310.958,592.919,311.099,600.541z M310.887,574.291c-2.059-0.128-4.64,0.264-6.352-0.211
			c0-4.306,0-8.609,0-12.913c-1.642-0.296-5.044,0.368-6.986-0.213c-0.219-2.798-0.612-7.5,0.212-9.95
			c4.378,0.138,9.311-0.278,13.337,0.212C310.958,558.838,311.379,567.021,310.887,574.291z M310.887,548.676
			c-4.446,0-8.892,0-13.337,0c-0.489-7.132-0.073-15.169-0.21-22.652c0.181-0.17,0.125-0.58,0.423-0.635
			c4.378,0.139,9.311-0.278,13.337,0.212C310.958,533.223,311.379,541.405,310.887,548.676z M310.887,523.061
			c-4.446,0-8.892,0-13.337,0c-0.348-7.061-0.355-15.592,0-22.652c-0.018-0.299-0.035-0.599,0.212-0.634
			c4.378,0.137,9.311-0.278,13.337,0.211C310.958,507.608,311.379,515.791,310.887,523.061z M314.486,603.08
			c4.446,0,8.892,0,13.337,0c0,7.692,0,15.385,0,23.077c-4.03,0.35-9.519,0.35-13.549,0
			C314.416,618.536,313.992,610.35,314.486,603.08z M327.611,651.984c-4.378-0.139-9.31,0.277-13.336-0.213
			c0-7.621,0-15.241,0-22.863c0.154-0.197,0.385-0.321,0.635-0.423c4.244,0.132,9.02-0.271,12.914,0.211
			C327.683,636.391,328.104,644.643,327.611,651.984z M327.823,548.676c-4.517,0-9.033,0-13.549,0
			c0.141-7.692-0.282-15.947,0.211-23.287c4.375,0,8.75,0,13.125,0C328.104,532.73,327.683,540.982,327.823,548.676z
			 M327.823,523.061c-4.517,0-9.033,0-13.549,0c0-7.552,0-15.102,0-22.652c-0.009-0.361,0.157-0.547,0.423-0.634
			c4.305,0,8.609,0,12.914,0C328.104,507.114,327.683,515.367,327.823,523.061z M338.196,651.984c-2.611,0-5.222,0-7.833,0
			c-0.493-7.271-0.072-15.454-0.211-23.076c1.904-0.815,6.005-0.433,8.256-0.212C338.268,636.391,338.689,644.643,338.196,651.984z
			 M338.196,626.368c-2.611,0-5.222,0-7.833,0c-0.352-7.271-0.354-16.018,0-23.288c2.682,0,5.363,0,8.044,0
			C338.268,610.774,338.689,619.028,338.196,626.368z M338.62,578.736c-0.634,6.847,0.209,15.171-0.423,22.018
			c-2.682,0-5.364,0-8.044,0c0-7.763,0-15.526,0-23.288c2.965,0.042,7.179-0.055,10.584,0c0.979,0.017,2.332-0.375,2.964,0.424
			C343.461,579.628,340.199,578.34,338.62,578.736z M343.7,574.08c-4.097,0.489-9.1,0.073-13.548,0.211
			c0.141-7.692-0.283-15.949,0.211-23.287c4.445,0,8.891,0,13.337,0C343.7,558.695,343.7,566.388,343.7,574.08z M343.7,548.676
			c-4.517,0-9.032,0-13.548,0c0.141-7.692-0.283-15.947,0.211-23.287c4.375,0,8.75,0,13.125,0
			C343.981,532.73,343.56,540.982,343.7,548.676z M343.7,523.061c-4.517,0-9.032,0-13.548,0c0-7.552,0-15.102,0-22.652
			c-0.01-0.361,0.157-0.547,0.423-0.634c4.305,0,8.609,0,12.914,0C343.981,507.114,343.56,515.367,343.7,523.061z M362.117,658.97
			c-4.448-0.139-9.451,0.278-13.548-0.213c0-7.479,0-14.959,0-22.44c-0.009-0.361,0.158-0.548,0.424-0.633c4.375,0,8.75,0,13.125,0
			C362.469,642.958,362.469,651.693,362.117,658.97z M362.117,633.354c-4.448-0.138-9.451,0.278-13.548-0.213
			c0-7.479,0-14.959,0-22.439c-0.009-0.361,0.158-0.548,0.424-0.635c4.375,0,8.75,0,13.125,0
			C362.469,617.343,362.469,626.08,362.117,633.354z M362.965,575.984c-2.682,0-5.364,0-8.044,0
			c-0.493-6.212-0.073-13.334-0.212-19.9c-0.009-0.361,0.157-0.548,0.423-0.634c2.611,0,5.222,0,7.833,0
			C363.316,561.806,363.316,569.63,362.965,575.984z M362.965,501.044c-3.881,0-7.763,0-11.644,0c0-2.258,0-4.516,0-6.775
			c-0.244-0.842-1.198,0.256-1.694-0.422c-0.355-4.879-0.347-11.211,0-16.089c4.446,0,8.892,0,13.337,0
			C363.316,485.027,363.316,493.774,362.965,501.044z M365.293,530.47c-0.01-0.362,0.158-0.548,0.423-0.635c0.071,0,0.142,0,0.212,0
			c1.28-0.002,0.798,1.621,0.846,2.328c0.392,5.632,0.332,12.667,0,18.629c-0.038,0.69,0.388,2.025-0.634,2.329
			c-1.305,0.128-0.797-1.454-0.847-2.117C364.83,544.741,365.642,536.883,365.293,530.47z M365.293,571.539
			c0-4.762,0-10.646,0-15.455c-0.01-0.361,0.158-0.548,0.423-0.634c0.071,0,0.142,0,0.212,0c1.417,0.281,0.846,3.046,0.846,4.657
			c0,3.539,0,7.262,0,11.008c0,1.786,0.491,3.803-0.634,4.869C364.68,575.734,365.293,573.08,365.293,571.539z M378.842,658.97
			c-4.446,0-8.891,0-13.337,0c-0.49-7.132-0.074-15.168-0.212-22.653c0.182-0.169,0.126-0.578,0.423-0.633
			c4.378,0.138,9.311-0.279,13.337,0.211C378.914,643.518,379.334,651.699,378.842,658.97z M378.842,633.354
			c-4.446,0-8.891,0-13.337,0c-0.49-7.131-0.074-15.168-0.212-22.652c0.182-0.17,0.126-0.58,0.423-0.635
			c4.378,0.138,9.311-0.276,13.337,0.212C378.914,617.902,379.334,626.085,378.842,633.354z M380.323,575.984
			c-2.328,0-4.657,0-6.986,0c0-3.316,0-6.633,0-9.95c4.517,0,9.033,0,13.549,0c-0.137,4.169,0.277,8.887-0.211,12.702
			c-2.046,0-4.093,0-6.14,0C379.973,577.981,380.641,576.551,380.323,575.984z M394.719,658.97c-4.446,0-8.892,0-13.337,0
			c-0.49-7.132-0.073-15.168-0.211-22.653c0.181-0.169,0.125-0.578,0.423-0.633c4.378,0.138,9.31-0.279,13.336,0.211
			C394.791,643.518,395.212,651.699,394.719,658.97z M394.719,633.354c-4.446,0-8.892,0-13.337,0
			c-0.49-7.131-0.073-15.168-0.211-22.652c0.181-0.17,0.125-0.58,0.423-0.635c4.378,0.138,9.31-0.276,13.336,0.212
			C394.791,617.902,395.212,626.085,394.719,633.354z M409.75,633.354c-1.553,0-3.106,0-4.659,0c0-7.552,0-15.102,0-22.652
			c0.438-1.326,3.208-0.32,4.659-0.635C410.101,617.343,410.101,626.08,409.75,633.354z M409.961,607.527
			c-1.228,0.465-3.295,0.091-4.87,0.212c0-7.551,0-15.101,0-22.652c0.438-1.326,3.208-0.32,4.659-0.635
			C410.238,591.725,409.822,599.903,409.961,607.527z M409.75,582.124c-1.188,0.331-3.472,0.331-4.659,0c0-1.129,0-2.259,0-3.388
			c-2.9-0.133-6.341,0.273-8.89-0.212c0-6.421,0-12.843,0-19.264c0.155-0.198,0.384-0.321,0.635-0.425
			c4.237,0.139,9.027-0.276,12.914,0.213C410.102,566.249,410.102,574.924,409.75,582.124z M405.938,551.216
			c0-3.388,0-6.773,0-10.162c-0.009-0.362,0.157-0.547,0.425-0.634c4.374,0,8.749,0,13.124,0c0.348,3.134,0.348,7.662,0,10.796
			C415.459,551.568,409.969,551.568,405.938,551.216z M426.474,633.354c-4.446,0-8.892,0-13.337,0
			c-0.489-7.131-0.074-15.168-0.212-22.652c0.182-0.17,0.125-0.58,0.424-0.635c4.378,0.138,9.31-0.276,13.337,0.212
			C426.545,617.902,426.966,626.085,426.474,633.354z M412.925,607.527c0-7.479,0-14.961,0-22.44
			c0.182-0.171,0.125-0.58,0.424-0.635c4.378,0.138,9.31-0.277,13.337,0.212c0,7.62,0,15.243,0,22.863
			C422.586,607.88,417.024,607.88,412.925,607.527z M426.474,582.124c-3.965,0.355-9.37,0.345-13.337,0
			c-0.493-7.128-0.071-15.171-0.212-22.65c0.119-0.307,0.33-0.518,0.636-0.638c4.312,0.134,9.16-0.269,13.125,0.213
			C426.545,566.672,426.966,574.854,426.474,582.124z M427.955,551.428c-1.612-0.113-0.711-3.763-0.635-4.868
			c0.353,0,0.705,0,1.059,0C428.147,548.093,428.872,550.58,427.955,551.428z M427.955,544.23c-1.367,0.234-0.807-1.513-0.848-2.118
			c-0.429-6.268,0.322-14.116,0-20.534c-0.009-0.361,0.158-0.548,0.424-0.635c0.071,0,0.142,0,0.213,0
			c1.171,0.229,0.61,1.805,0.635,2.54c0.184,5.63,0.123,12.223,0,18.206C428.361,542.458,428.759,543.725,427.955,544.23z
			 M442.351,633.354c-4.445,0-8.891,0-13.337,0c-0.489-7.131-0.073-15.168-0.211-22.652c0.182-0.17,0.125-0.58,0.422-0.635
			c4.38,0.138,9.312-0.276,13.337,0.212C442.422,617.902,442.844,626.085,442.351,633.354z M428.803,607.527
			c0-7.479,0-14.961,0-22.44c0.182-0.171,0.125-0.58,0.422-0.635c4.38,0.138,9.312-0.277,13.337,0.212c0,7.62,0,15.243,0,22.863
			C438.462,607.88,432.902,607.88,428.803,607.527z M442.351,582.124c-3.964,0.355-9.371,0.345-13.337,0
			c-0.493-7.128-0.07-15.171-0.211-22.65c0.117-0.307,0.33-0.518,0.634-0.638c4.314,0.134,9.162-0.269,13.125,0.213
			C442.422,566.672,442.844,574.854,442.351,582.124z M459.286,642.033c-1.72,0.35-4.843,0.35-6.562,0
			c0.141-7.621-0.281-15.806,0.212-23.074c2.117,0,4.232,0,6.351,0C459.286,626.651,459.286,634.342,459.286,642.033z
			 M459.286,616.418c-1.72,0.349-4.843,0.349-6.562,0c0.141-7.621-0.281-15.806,0.212-23.074c2.047,0,4.093,0,6.139,0
			C459.566,600.612,459.146,608.795,459.286,616.418z M459.286,590.804c-1.781,0.477-4.434,0.082-6.562,0.212
			c0-7.552,0-15.102,0-22.651c-0.01-0.362,0.157-0.549,0.423-0.637c1.976,0,3.952,0,5.928,0
			C459.566,574.999,459.146,583.181,459.286,590.804z M459.074,564.553c-2.117,0-4.232,0-6.351,0c0-4.374,0-8.749,0-13.125
			c-1.58-0.265-5.097,0.36-6.986-0.212c-0.234-2.814-0.59-7.479,0.213-9.949c4.374,0,8.749,0,13.124,0
			C459.427,548.536,459.427,557.282,459.074,564.553z M585.881,507.396c0.118-0.306,0.331-0.517,0.634-0.637
			c4.238,0.139,9.029-0.277,12.915,0.213c0.352,7.205,0.352,15.87,0,23.074c-4.035,0.356-9.512,0.345-13.549,0
			C585.881,522.496,585.881,514.945,585.881,507.396z M585.881,532.798c0.154-0.197,0.385-0.319,0.634-0.423
			c4.238,0.138,9.029-0.277,12.915,0.211c0.352,7.206,0.352,15.871,0,23.076c-3.967,0.345-9.373,0.357-13.338,0
			C585.6,548.463,586.02,540.35,585.881,532.798z M585.881,558.625c-0.01-0.361,0.158-0.548,0.424-0.635
			c4.308,0.138,9.169-0.276,13.125,0.212c0.354,7.203,0.35,15.871,0,23.074c-4.445,0-8.892,0-13.338,0
			C585.6,574.148,586.02,566.106,585.881,558.625z M518.773,617.688c0.119-0.305,0.33-0.516,0.635-0.635
			c4.313,0.132,9.161-0.271,13.125,0.212c-0.142,7.622,0.281,15.805-0.212,23.074c-3.958,0.353-9.377,0.353-13.336,0
			C518.494,633.209,518.91,625.171,518.773,617.688z M532.533,614.725c-4.036,0.345-9.514,0.357-13.548,0
			c-0.354-7.129-0.354-15.732,0-22.862c0.155-0.198,0.384-0.32,0.634-0.424c4.174,0.131,8.879-0.27,12.702,0.211
			C532.814,598.919,532.392,607.103,532.533,614.725z M478.34,490.671c-0.01-0.362,0.156-0.548,0.422-0.636
			c4.31,0.138,9.17-0.277,13.126,0.212c0,7.692,0,15.384,0,23.076c-4.042,0.35-9.508,0.35-13.548,0
			C478.34,505.771,478.34,498.221,478.34,490.671z M462.461,490.671c-0.009-0.362,0.158-0.548,0.425-0.636
			c4.308,0.138,9.168-0.277,13.124,0.212c0,7.692,0,15.384,0,23.076c-4.041,0.35-9.506,0.35-13.549,0
			C462.461,505.771,462.461,498.221,462.461,490.671z M476.01,642.033c-4.029,0.353-9.519,0.353-13.549,0
			c0.142-7.621-0.28-15.806,0.212-23.074c4.446,0,8.892,0,13.337,0C476.01,626.651,476.01,634.342,476.01,642.033z M476.01,616.418
			c-4.029,0.352-9.519,0.352-13.549,0c0.142-7.621-0.28-15.806,0.212-23.074c4.446,0,8.892,0,13.337,0
			C476.01,601.035,476.01,608.727,476.01,616.418z M476.01,591.016c-4.516,0-9.031,0-13.549,0c0-7.552,0-15.102,0-22.651
			c-0.009-0.362,0.158-0.549,0.425-0.637c4.304,0,8.608,0,12.912,0C476.291,575.068,475.87,583.321,476.01,591.016z M476.01,564.553
			c-4.516,0-9.031,0-13.549,0c0-7.55,0-15.102,0-22.652c-0.009-0.361,0.158-0.548,0.425-0.634c4.304,0,8.608,0,12.912,0
			C476.291,548.607,475.87,556.86,476.01,564.553z M476.01,538.938c-4.516,0-9.031,0-13.549,0c0-7.551,0-15.101,0-22.651
			c-0.009-0.361,0.158-0.549,0.425-0.636c4.304,0,8.608,0,12.912,0C476.291,522.991,475.87,531.245,476.01,538.938z
			 M486.383,642.245c-2.61,0-5.222,0-7.832,0c-0.353-7.269-0.354-16.017,0-23.286c2.682,0,5.361,0,8.045,0
			C486.455,626.651,486.876,634.905,486.383,642.245z M486.383,616.631c-2.61,0-5.222,0-7.832,0c-0.353-7.271-0.354-16.019,0-23.287
			c2.682,0,5.361,0,8.045,0C486.455,601.037,486.876,609.289,486.383,616.631z M489.558,568.999c-0.981,0.036-1.981-0.029-2.751,0
			c-0.493,6.917-0.071,14.747-0.211,22.017c-2.753,0-5.505,0-8.256,0c0-7.552,0-15.102,0-22.651
			c-0.01-0.362,0.156-0.549,0.422-0.637c3.134,0.086,6.901-0.109,10.374,0c0.873,0.028,2.515-0.535,2.752,0.637
			C491.964,569.439,490.474,568.964,489.558,568.999z M491.888,564.553c-4.516,0-9.033,0-13.548,0c0-7.55,0-15.102,0-22.652
			c-0.01-0.361,0.156-0.548,0.422-0.634c4.306,0,8.61,0,12.914,0C492.169,548.607,491.747,556.86,491.888,564.553z M491.888,538.938
			c-4.516,0-9.033,0-13.548,0c0-7.551,0-15.101,0-22.651c-0.01-0.361,0.156-0.549,0.422-0.636c4.306,0,8.61,0,12.914,0
			C492.169,522.991,491.747,531.245,491.888,538.938z M508.612,649.231c-3.883,0-7.763,0-11.644,0
			c-0.493-7.13-0.073-15.17-0.213-22.652c-0.009-0.36,0.158-0.548,0.425-0.634c3.744,0.137,8.039-0.278,11.432,0.212
			C508.613,632.913,508.616,642.471,508.612,649.231z M508.612,623.616c-3.885-0.137-8.323,0.277-11.856-0.213
			c0-7.479,0-14.958,0-22.439c0.182-0.171,0.126-0.579,0.425-0.635c3.744,0.138,8.039-0.276,11.432,0.212
			C508.609,607.295,508.621,616.86,508.612,623.616z M510.517,585.512c-0.343,0.432-1.562-0.011-1.904,0.422
			c-0.04,3.961,0.055,8.782,0,12.067c-3.413,0.349-8.23,0.349-11.644,0c-0.493-7.13-0.073-15.172-0.213-22.651
			c0.119-0.305,0.331-0.517,0.636-0.636c4.237,0.138,9.028-0.277,12.914,0.212C510.791,578.037,510.381,582.048,510.517,585.512z
			 M513.48,575.35c0.119-0.305,0.33-0.517,0.636-0.636c4.312,0.133,9.161-0.27,13.125,0.212c-0.137,3.534,0.275,7.615-0.212,10.797
			c-4.445,0-8.892,0-13.337,0C513.217,582.668,513.607,578.75,513.48,575.35z M532.11,657.467c-1.668-0.468-1.265,1.135-2.753,0.848
			c-0.496,0.066-0.473,0.653-0.846,0.845c-0.404,0.398-0.384-0.125-1.06,0c-0.507,0.694-1.279,1.119-1.693,1.906
			c-1.631-0.431-1.179,1.22-2.752,0.848c-0.326,0.66-1.138,0.838-1.904,1.058c-0.215,0.703-1.132,0.703-2.117,0.635
			c-0.354-5.085-0.354-15.64,0-20.724c4.026-0.491,8.957-0.076,13.336-0.213C532.618,645.801,532.832,654.651,532.11,657.467z
			 M529.569,585.723c-0.335-2.982-0.365-7.396,0-10.373c-0.01-0.362,0.158-0.55,0.423-0.636c4.314,0.133,9.162-0.27,13.127,0.212
			c-0.137,3.534,0.275,7.615-0.212,10.797C538.461,585.723,534.016,585.723,529.569,585.723z M548.41,640.34
			c-4.036,0.345-9.514,0.356-13.549,0c-0.349-7.06-0.354-15.592,0-22.651c-0.009-0.361,0.158-0.548,0.424-0.635
			c4.312,0.132,9.162-0.271,13.125,0.212C548.41,624.956,548.41,632.648,548.41,640.34z M548.41,614.725
			c-4.036,0.345-9.514,0.357-13.549,0c-0.35-7.132-0.353-15.73,0-22.862c0.155-0.198,0.386-0.32,0.636-0.424
			c4.174,0.131,8.878-0.27,12.702,0.211C548.691,598.919,548.271,607.103,548.41,614.725z M551.585,644.341c0-0.521,0-1.497,0-2.091
			c0-0.422,3.227-0.135,5.518-0.287c-0.092,0.141-0.175,0.29-0.224,0.473C554.655,642.411,554.142,644.964,551.585,644.341z
			 M565.135,635.662c-0.871,1.175-2.213,1.879-2.964,3.175c-0.444,0.515-0.94-0.188-1.271,0.212
			c-0.468,0.591-1.199,0.917-1.481,1.693c-0.248,0-0.496,0-0.744,0c-0.152-0.333-0.341-0.644-0.341-0.742
			c0-0.14-6.749,0.06-6.749-0.082c-0.003-7.175-0.002-17.157,0-22.652c4.035-0.357,9.514-0.345,13.55,0
			C565.135,622.064,565.135,630.863,565.135,635.662z M564.922,614.938c-4.377-0.139-9.31,0.276-13.337-0.213
			c-0.006-6.684-0.002-16.183,0-22.862c0.155-0.198,0.387-0.32,0.637-0.424c4.242,0.131,9.019-0.271,12.913,0.211
			C564.994,599.344,565.415,607.596,564.922,614.938z M583.764,620.054c-1.107,1.079-1.409,2.965-3.599,2.963
			c-1.37,1.344-2.485,3.482-4.445,3.6c-0.77-1.668-0.424-7.112-0.424-9.351c0-2.246,0-4.521,0-6.563c0-0.14,0-0.282,0-0.423
			c2.339-0.483,5.566-0.078,8.256-0.212C584.007,612.013,583.652,617.769,583.764,620.054z M583.552,607.739
			c-2.682,0-5.362,0-8.045,0c-0.492-6.846-0.07-14.606-0.211-21.806c-1.238-0.737-4.407,0.455-5.292-0.634
			c-0.06-0.483,0.051-0.796,0.423-0.848c4.309,0.138,9.169-0.277,13.125,0.212C583.906,591.866,583.902,600.536,583.552,607.739z
			 M583.552,581.276c-4.445,0-8.891,0-13.337,0c-0.493-7.128-0.07-15.17-0.211-22.651c-0.01-0.361,0.156-0.548,0.423-0.635
			c4.309,0.138,9.169-0.276,13.125,0.212C583.906,565.405,583.902,574.073,583.552,581.276z M583.552,555.662
			c-3.966,0.345-9.373,0.357-13.337,0c-0.493-7.199-0.07-15.312-0.211-22.864c0.154-0.197,0.385-0.319,0.635-0.423
			c4.237,0.138,9.027-0.277,12.913,0.211C583.904,539.792,583.904,548.457,583.552,555.662z M583.552,530.046
			c-4.035,0.356-9.512,0.345-13.548,0c0-7.55,0-15.101,0-22.65c0.118-0.306,0.331-0.517,0.635-0.637
			c4.243,0.133,9.02-0.269,12.913,0.213C583.904,514.177,583.904,522.842,583.552,530.046z M599.43,602.022
			c-0.21,1.509-1.663,2.076-2.54,2.965c-0.914,0.923-1.566,2.102-2.753,2.752c-2.682,0-5.361,0-8.045,0
			c-0.492-7.129-0.072-15.172-0.211-22.652c-0.01-0.362,0.158-0.549,0.424-0.635c4.308,0.138,9.169-0.277,13.125,0.212
			C599.78,589.959,599.783,596.728,599.43,602.022z M609.168,592.709c-1.002,1.119-1.916,2.312-2.965,3.387
			c-0.979,1.005-2.101,2.08-3.387,2.752c-0.357-4.315-0.346-10.078,0-14.396c2.059,0.129,4.64-0.265,6.352,0.212
			C609.275,586.714,609.095,590.017,609.168,592.709z M616.152,568.151c-2.257,0-4.515,0-6.773,0
			c-0.523,3.881-0.025,9.572-0.211,13.125c-2.118,0-4.233,0-6.352,0c-0.492-7.128-0.071-15.17-0.212-22.651
			c0.183-0.17,0.125-0.58,0.424-0.635c4.375,0,8.75,0,13.124,0C616.504,560.896,616.504,565.247,616.152,568.151z M616.152,555.662
			c-3.971,0.349-9.363,0.349-13.336,0c-0.492-7.129-0.071-15.172-0.212-22.651c0.119-0.305,0.33-0.517,0.636-0.636
			c4.237,0.138,9.028-0.277,12.912,0.211C616.506,539.788,616.506,548.462,616.152,555.662z M616.152,530.046
			c-3.959,0.353-9.377,0.353-13.336,0c-0.492-7.127-0.071-15.17-0.212-22.65c0.119-0.306,0.33-0.517,0.636-0.637
			c4.237,0.139,9.028-0.277,12.912,0.213C616.506,514.172,616.506,522.846,616.152,530.046z"/>
		<path fill="#444A9A" d="M585.881,624.726c1.354,0.073,3.759-1.49,5.119-0.846c0.313-0.714,0.352-3.238,0.332-5.958
			c-1.794,1.769-3.612,3.512-5.451,5.233C585.881,623.907,585.881,624.469,585.881,624.726z"/>
	</g>
	<path fill="#444A9A" d="M623.14,575.734"/>
	<g>
		<defs>
			<path id="SVGID_1_" d="M143.743,438.27c-7.062,0-12.448-2.012-16.157-6.034s-5.562-9.696-5.562-17.025v-50.413
				c0-7.327,1.854-13.005,5.562-17.026c3.709-4.022,9.095-6.034,16.157-6.034c7.06,0,12.445,2.011,16.155,6.034
				c3.708,4.021,5.563,9.699,5.563,17.026v9.921h-13.943v-10.859c0-5.809-2.459-8.715-7.374-8.715c-4.917,0-7.373,2.906-7.373,8.715
				v52.422c0,5.723,2.456,8.581,7.373,8.581c4.915,0,7.374-2.858,7.374-8.581v-14.345h13.943v13.274
				c0,7.329-1.855,13.003-5.563,17.025C156.188,436.258,150.802,438.27,143.743,438.27L143.743,438.27z M196.432,343.078h19.976
				l15.285,93.851h-14.748l-2.682-18.637v0.268h-16.759l-2.682,18.369h-13.675L196.432,343.078z M212.521,405.823l-6.57-46.389
				h-0.269l-6.436,46.389H212.521z M249.521,343.078h21.719c7.328,0,12.825,1.966,16.491,5.899c3.664,3.935,5.497,9.7,5.497,17.296
				v9.251c0,7.598-1.833,13.362-5.497,17.295c-3.666,3.934-9.163,5.898-16.491,5.898h-6.971v38.212h-14.748V343.078z
				 M271.24,385.311c2.414,0,4.225-0.671,5.431-2.012c1.207-1.34,1.811-3.62,1.811-6.837v-11.128c0-3.218-0.604-5.497-1.811-6.838
				c-1.206-1.341-3.017-2.012-5.431-2.012h-6.971v28.826H271.24z M323.8,356.484h-15.418v-13.407h45.584v13.407h-15.418v80.444
				H323.8V356.484z M393.247,438.27c-7.152,0-12.603-2.032-16.356-6.1s-5.631-9.899-5.631-17.497v-71.595h14.747v72.667
				c0,3.219,0.647,5.543,1.944,6.973c1.295,1.431,3.15,2.145,5.564,2.145c2.413,0,4.267-0.714,5.563-2.145
				c1.295-1.43,1.944-3.754,1.944-6.973v-72.667h14.213v71.595c0,7.598-1.877,13.43-5.632,17.497S400.396,438.27,393.247,438.27
				L393.247,438.27z M436.42,343.078h21.854c7.595,0,13.138,1.765,16.624,5.296c3.485,3.531,5.229,8.961,5.229,16.289v5.766
				c0,9.743-3.218,15.91-9.654,18.502v0.268c3.575,1.072,6.101,3.263,7.576,6.569c1.475,3.309,2.212,7.732,2.212,13.273v16.49
				c0,2.682,0.089,4.85,0.269,6.504c0.177,1.654,0.624,3.283,1.341,4.894h-15.017c-0.536-1.52-0.894-2.95-1.072-4.291
				c-0.18-1.341-0.268-3.754-0.268-7.24v-17.161c0-4.29-0.693-7.283-2.078-8.982c-1.387-1.696-3.778-2.548-7.174-2.548h-5.094
				v40.223H436.42V343.078z M456.529,383.299c2.951,0,5.163-0.757,6.638-2.278c1.475-1.52,2.212-4.066,2.212-7.643v-7.24
				c0-3.396-0.603-5.853-1.81-7.374c-1.206-1.519-3.105-2.279-5.698-2.279h-6.703v26.814H456.529z M512.569,343.078h19.977
				l15.282,93.851H533.08l-2.681-18.637v0.268h-16.758l-2.682,18.369h-13.676L512.569,343.078z M528.658,405.823l-6.57-46.389
				h-0.268l-6.437,46.389H528.658z M565.658,343.078h21.049l9.386,67.169h0.269l9.385-67.169h21.048v93.851h-13.943V365.87h-0.268
				l-10.727,71.059h-12.333l-10.727-71.059h-0.268v71.059h-12.871V343.078z M659.913,343.078h19.977l15.282,93.851h-14.747
				l-2.681-18.637v0.268h-16.759l-2.681,18.369h-13.677L659.913,343.078z M676.002,405.823l-6.57-46.389h-0.268l-6.436,46.389
				H676.002z"/>
		</defs>
		<use xlink:href="#SVGID_1_"  overflow="visible" fill="#444A9A"/>
		<clipPath id="SVGID_2_">
			<use xlink:href="#SVGID_1_"  overflow="visible"/>
		</clipPath>
		<g clip-path="url(#SVGID_2_)">
			<defs>
				<rect id="SVGID_3_" x="46.936" y="45.876" width="702.127" height="686.25"/>
			</defs>
			<use xlink:href="#SVGID_3_"  overflow="visible" fill="#444A9A"/>
			<clipPath id="SVGID_4_">
				<use xlink:href="#SVGID_3_"  overflow="visible"/>
			</clipPath>
		</g>
	</g>
</g>
<g id="Calque_4">
	<path fill="#444A9A" d="M390.834,690.499c-163.844,0-296.667-132.82-296.667-296.666c0-163.844,132.822-296.667,296.667-296.667
		c126.965,0,235.282,79.768,277.619,191.914h-35.999l59.909,56.523l56.523-56.523h-29.43
		c-42.76-141.337-173.996-244.248-329.29-244.248c-189.986,0-344,154.014-344,344c0,189.987,154.014,344.002,344,344.002
		c165.053,0,302.931-116.252,336.285-271.337h-46.71C649.124,592.737,531.4,690.499,390.834,690.499z"/>
</g>
</svg>
